<?xml version="1.0" encoding="UTF-8" standalone="no"?>
<svg
   xmlns:dc="http://purl.org/dc/elements/1.1/"
   xmlns:cc="http://creativecommons.org/ns#"
   xmlns:rdf="http://www.w3.org/1999/02/22-rdf-syntax-ns#"
   xmlns:svg="http://www.w3.org/2000/svg"
   xmlns="http://www.w3.org/2000/svg"
   xmlns:sodipodi="http://sodipodi.sourceforge.net/DTD/sodipodi-0.dtd"
   xmlns:inkscape="http://www.inkscape.org/namespaces/inkscape"
   viewBox="0 0 512 512"
   version="1.1"
   id="svg6"
   sodipodi:docname="icon.svg"
   width="512"
   height="512"
   inkscape:version="0.92.4 (5da689c313, 2019-01-14)">
  <metadata
     id="metadata12">
    <rdf:RDF>
      <cc:Work
         rdf:about="">
        <dc:format>image/svg+xml</dc:format>
        <dc:type
           rdf:resource="http://purl.org/dc/dcmitype/StillImage" />
        <dc:title></dc:title>
      </cc:Work>
    </rdf:RDF>
  </metadata>
  <defs
     id="defs10" />
  <sodipodi:namedview
     pagecolor="#ffffff"
     bordercolor="#666666"
     borderopacity="1"
     objecttolerance="10"
     gridtolerance="10"
     guidetolerance="10"
     inkscape:pageopacity="0"
     inkscape:pageshadow="2"
     inkscape:window-width="3072"
     inkscape:window-height="1600"
     id="namedview8"
     showgrid="false"
     inkscape:zoom="1"
     inkscape:cx="-116"
     inkscape:cy="244"
     inkscape:window-x="0"
     inkscape:window-y="54"
     inkscape:window-maximized="1"
     inkscape:current-layer="svg6" />
  <rect
     id="rect3717"
     width="512"
     height="512"
     x="0"
     y="1.7763568e-14"
     style="fill:#ffffff;stroke-width:0.96978223" />
  <g
     id="g3721"
     transform="matrix(0.82786882,0,0,0.82786882,54,34.131147)">
    <path
       inkscape:connector-curvature="0"
       id="path2"
       d="M 351.1,330.6 254,262.7 V 146 c 0,-5.5 -4.5,-10 -10,-10 -5.5,0 -10,4.5 -10,10 v 122 c 0,3.3 1.6,6.3 4.3,8.2 l 101.4,70.9 c 1.7,1.2 3.7,1.8 5.7,1.8 3.1,0 6.2,-1.5 8.2,-4.4 3.1,-4.5 2,-10.7 -2.5,-13.9 z" />
    <path
       inkscape:connector-curvature="0"
       id="path4"
       d="M 416.4,95.6 C 370.2,49.4 309,24 244,24 179,24 117.8,49.4 71.6,95.6 25.4,141.8 0,203 0,268 0,333 25.4,394.2 71.6,440.4 117.8,486.6 179,512 244,512 309,512 370.2,486.6 416.4,440.4 462.6,394.2 488,333 488,268 488,203 462.6,141.8 416.4,95.6 Z M 254,491.8 V 451 c 0,-5.5 -4.5,-10 -10,-10 -5.5,0 -10,4.5 -10,10 v 40.8 C 118.4,486.7 25.3,393.6 20.2,278 H 61 c 5.5,0 10,-4.5 10,-10 0,-5.5 -4.5,-10 -10,-10 H 20.2 C 25.3,142.4 118.4,49.3 234,44.2 V 85 c 0,5.5 4.5,10 10,10 5.5,0 10,-4.5 10,-10 V 44.2 C 369.6,49.3 462.7,142.4 467.8,258 H 427 c -5.5,0 -10,4.5 -10,10 0,5.5 4.5,10 10,10 h 40.8 C 462.7,393.6 369.6,486.7 254,491.8 Z" />
  </g>
</svg>
